<svg xmlns="http://www.w3.org/2000/svg" width="189.166" height="40.152" viewBox="0 0 189.166 40.152">
  <path id="Path_113" data-name="Path 113" d="M4473.268,848.491H4294.241a.366.366,0,0,1-.365-.366V845.2a1.417,1.417,0,0,0-1.417-1.416h-2.922a.367.367,0,0,1-.365-.366V813.41a.366.366,0,0,1,.365-.365h2.922a1.418,1.418,0,0,0,1.417-1.418v-2.922a.367.367,0,0,1,.365-.366h179.027a.367.367,0,0,1,.366.366v2.922a1.419,1.419,0,0,0,1.416,1.418h2.923a.366.366,0,0,1,.365.365v30.011a.367.367,0,0,1-.365.366h-2.923a1.417,1.417,0,0,0-1.416,1.416v2.922A.366.366,0,0,1,4473.268,848.491Z" transform="translate(-4289.172 -808.339)" fill="#42843e"/>
</svg>
