<svg xmlns="http://www.w3.org/2000/svg" viewBox="0 0 189.17 40.15"><defs><style>.cls-1{fill:none;}</style></defs><title>Asset 1</title><g id="Layer_2" data-name="Layer 2"><g id="Post_Social_Share" data-name="Post Social Share"><path class="cls-1" d="M184.1,40.15H5.07a.37.37,0,0,1-.37-.36V36.86a1.41,1.41,0,0,0-1.41-1.41H.37A.37.37,0,0,1,0,35.08v-30a.36.36,0,0,1,.37-.36H3.29A1.42,1.42,0,0,0,4.7,3.29V.37A.37.37,0,0,1,5.07,0h179a.36.36,0,0,1,.36.37V3.29a1.43,1.43,0,0,0,1.42,1.42h2.92a.37.37,0,0,1,.37.36v30a.38.38,0,0,1-.37.37h-2.92a1.42,1.42,0,0,0-1.42,1.41v2.93A.36.36,0,0,1,184.1,40.15ZM5.43,39.42h178.3V36.86a2.14,2.14,0,0,1,2.15-2.14h2.56V5.44h-2.56a2.15,2.15,0,0,1-2.15-2.15V.73H5.43V3.29A2.15,2.15,0,0,1,3.29,5.44H.73V34.72H3.29a2.14,2.14,0,0,1,2.14,2.14Z"/></g></g></svg>