<svg xmlns="http://www.w3.org/2000/svg" width="376.818" height="48.795" viewBox="0 0 376.818 48.795">
  <g id="Newsletter_Submit_Button" data-name="Newsletter Submit Button" transform="translate(-451.591 -2600.86)">
   
    <path id="Path_29" data-name="Path 29" d="M822.249,2649.655h-364.5a.446.446,0,0,1-.444-.444v-3.551a1.722,1.722,0,0,0-1.721-1.722h-3.551a.444.444,0,0,1-.444-.444v-36.471a.444.444,0,0,1,.444-.444h3.551a1.724,1.724,0,0,0,1.721-1.724V2601.3a.445.445,0,0,1,.444-.444h364.5a.446.446,0,0,1,.444.444v3.551a1.724,1.724,0,0,0,1.721,1.724h3.551a.444.444,0,0,1,.444.444v36.471a.444.444,0,0,1-.444.444h-3.551a1.722,1.722,0,0,0-1.721,1.722v3.551A.446.446,0,0,1,822.249,2649.655Zm-364.054-.888H821.8v-3.107a2.612,2.612,0,0,1,2.609-2.61h3.108v-35.583h-3.108a2.613,2.613,0,0,1-2.609-2.612v-3.107H458.2v3.107a2.613,2.613,0,0,1-2.609,2.612h-3.108v35.583h3.108a2.612,2.612,0,0,1,2.609,2.61Z" fill="#42843e"/>
    <path id="Path_30" data-name="Path 30" d="M818.7,2646.1H461.3a.446.446,0,0,1-.444-.444,5.279,5.279,0,0,0-5.274-5.273.444.444,0,0,1-.444-.444v-29.369a.444.444,0,0,1,.444-.444,5.281,5.281,0,0,0,5.274-5.275.445.445,0,0,1,.444-.443H818.7a.444.444,0,0,1,.444.443,5.28,5.28,0,0,0,5.273,5.275.444.444,0,0,1,.444.444v29.369a.444.444,0,0,1-.444.444,5.278,5.278,0,0,0-5.273,5.273A.445.445,0,0,1,818.7,2646.1Zm-356.966-.888H818.27a6.174,6.174,0,0,1,5.7-5.7V2611a6.174,6.174,0,0,1-5.7-5.7H461.732a6.175,6.175,0,0,1-5.7,5.7v28.513A6.175,6.175,0,0,1,461.732,2645.216Z" fill="#42843e"/>
  </g>
</svg>
