<svg xmlns="http://www.w3.org/2000/svg" width="16.947" height="53.246" viewBox="0 0 16.947 53.246">
  <defs>
    <style>
      .cls-1 {
        fill: #42843e;
      }

      .cls-2 {
        fill: #fff;
      }
    </style>
  </defs>
  <g id="Newsletter_Footer_Topiary" data-name="Newsletter Footer Topiary" transform="translate(-996.933 -4377.103)">
    <g id="Group_12" data-name="Group 12">
      <rect id="Rectangle_10" data-name="Rectangle 10" class="cls-1" width="16.947" height="16.947" transform="translate(996.933 4413.401)"/>
      <g id="Group_11" data-name="Group 11">
        <path id="Path_34" data-name="Path 34" class="cls-2" d="M1012.457,4428.927h-14.1v-14.1h14.1Zm-13.434-.666h12.767V4415.49H999.023Z"/>
        <rect id="Rectangle_11" data-name="Rectangle 11" class="cls-2" width="0.66" height="19" transform="translate(998.456 4415.391) rotate(-44.994)"/>
        <rect id="Rectangle_12" data-name="Rectangle 12" class="cls-2" width="19" height="0.66" transform="translate(998.455 4428.36) rotate(-45)"/>
      </g>
      <rect id="Rectangle_13" data-name="Rectangle 13" class="cls-1" width="0.789" height="14.369" transform="translate(1005.012 4399.032)"/>
      <rect id="Rectangle_14" data-name="Rectangle 14" class="cls-1" width="0.789" height="13.415" transform="translate(1005.012 4381.904)"/>
      <path id="Path_35" data-name="Path 35" d="M1010.147,4405.3c.123.631.2,1.216.359,1.777.117.407-.015.56-.384.623-.135.023-.267.064-.552.135l2.107,1.013-1.313.6.358,1.272c-.247-.093-.447-.159-.639-.242a13.361,13.361,0,0,1-4.039-2.411,1.9,1.9,0,0,0-1.765.125,11.907,11.907,0,0,1-4.05,2.4l.476-1.41-1.569-.531,1.728-.772c-.029-.06-.036-.1-.055-.109-.778-.216-.78-.216-.624-1.009.068-.343.17-.681.207-1.027s.215-.4.512-.4a7.844,7.844,0,0,1,3.2,1,2.75,2.75,0,0,0,2.2.028A12.477,12.477,0,0,1,1010.147,4405.3Z"/>
      <path id="Path_36" data-name="Path 36" class="cls-1" d="M1010.453,4382.117a.224.224,0,0,0-.143-.217c.045-.009.087-.019.094-.046s-.036-.08-.106-.122c.083-.076.136-.161.11-.242a.228.228,0,0,0-.183-.137c.026-.05.058-.1.044-.148s-.068-.064-.112-.089a.225.225,0,0,0,.066-.214c-.018-.055-.076-.085-.138-.111.11-.011.2-.053.2-.108s-.106-.11-.235-.107a.145.145,0,0,0-.022,0,.153.153,0,0,0,.095-.183c-.018-.056-.08-.06-.134-.07a.227.227,0,0,0,.005-.228.214.214,0,0,0-.161-.066.246.246,0,0,0,0-.26.22.22,0,0,0-.181-.052.29.29,0,0,0,.055-.249c-.012-.036-.058-.049-.084-.076,0-.012.018-.024.014-.035-.01-.032-.053-.047-.108-.051a.468.468,0,0,0-.158-.019c.03-.049.064-.1.03-.155-.016-.023-.047,0-.07-.014-.007-.028.007-.064-.01-.086-.033-.038-.093-.037-.149-.042,0,0,0-.012,0-.017-.021-.031-.07-.029-.107-.043a.279.279,0,0,0,.042-.188c-.037-.115-.162-.166-.308-.181a.366.366,0,0,0-.038-.035.305.305,0,0,0,.013-.311c-.088-.13-.289-.13-.479-.043-.014-.041-.015-.093-.05-.115a.229.229,0,0,0-.227.01c-.016-.009-.032-.014-.046-.023a.279.279,0,0,0-.015-.2.326.326,0,0,0-.347-.086.337.337,0,0,0-.256-.037c-.011,0-.02-.011-.029-.015.1-.1.163-.2.13-.249-.047-.068-.226-.019-.415.092a.2.2,0,0,0-.105-.179.221.221,0,0,0-.25.071c.007-.046.009-.089-.014-.1s-.089.011-.149.065c-.047-.1-.112-.177-.2-.177a.226.226,0,0,0-.185.133c-.04-.039-.079-.085-.129-.085s-.08.044-.118.078h0a.227.227,0,0,0-.185-.126c-.055,0-.1.047-.141.095h-.005c.021-.106.008-.2-.044-.216s-.137.068-.173.191c0,.006,0,.01,0,.016h-.008a.149.149,0,0,0-.139-.139.155.155,0,0,0-.154.154c0,.007.012.006.013.012l-.018,0c-.032-.025-.061-.067-.1-.067s-.094.046-.134.089l-.022,0c-.086-.087-.182-.142-.266-.106a.218.218,0,0,0-.1.154c-.017,0-.034.011-.05.014a.312.312,0,0,0-.255-.2c-.146,0-.247.147-.292.33a.215.215,0,0,0-.159-.03c-.049.021-.069.081-.09.138-.038.016-.074.042-.112.059-.045-.032-.084-.08-.138-.08-.121,0-.207.1-.266.239a.323.323,0,0,0-.158.137l-.052.027c-.029-.116-.071-.2-.126-.2-.083,0-.143.176-.156.394a.211.211,0,0,0-.208-.013.244.244,0,0,1-.256.289c-.025.03-.009.077-.011.118-.039.037-.086.064-.125.1-.078.077-.132.167-.2.248-.012.008-.036,0-.045.014s0,.032,0,.045c-.022.026-.043.053-.064.08-.056-.046-.112-.074-.146-.051s0,.112.032.19c-.024.031-.052.06-.076.093-.036.006-.076-.02-.1.011s.01.062.011.1c-.074.111-.127.23-.191.345a.231.231,0,0,0-.176.145c-.01.038.023.077.039.116-.012.025-.028.048-.039.073-.114-.039-.216-.048-.261.01s.007.2.113.33c-.025.069-.04.141-.062.211-.046.027-.1.05-.112.1s.021.088.044.132c-.015.054-.035.107-.048.162-.039.016-.09.012-.117.045a.33.33,0,0,0,.023.357.312.312,0,0,0,0,.2c-.006.064-.014.127-.018.19-.009,0-.028,0-.033,0-.018.023.006.072.021.114,0,.034-.009.067-.009.1a.212.212,0,0,0-.132.153.222.222,0,0,0,.143.217c-.045.009-.087.02-.094.045s.036.081.107.123c-.084.076-.136.161-.111.242a.224.224,0,0,0,.157.126c.005.025,0,.051.008.076s-.033.056-.025.083.04.027.054.044c.008.038.025.074.034.112-.026.05-.058.1-.043.147s.067.065.113.091l.008.024c-.1.014-.181.052-.18.1s.106.109.235.107h.007l.005.017a.149.149,0,0,0-.085.162c.019.056.081.059.135.07a.23.23,0,0,0-.006.228.213.213,0,0,0,.161.065.248.248,0,0,0,0,.261.218.218,0,0,0,.181.052.29.29,0,0,0-.056.248c.011.037.058.049.084.077,0,.012-.017.024-.014.035.01.032.054.047.108.051a.474.474,0,0,0,.159.018c-.031.05-.065.1-.03.156.016.023.046,0,.07.014.006.028-.009.064.01.085.032.039.093.038.149.043,0,0,0,.012,0,.016.02.031.069.03.107.044a.28.28,0,0,0-.043.188c.037.115.163.166.309.181a.215.215,0,0,0,.038.035.307.307,0,0,0-.014.31c.088.131.29.131.479.044.014.041.016.093.05.115a.221.221,0,0,0,.2,0c.025.015.052.025.077.041a.282.282,0,0,0,.012.178.328.328,0,0,0,.348.086.322.322,0,0,0,.229.045c.014.006.026.016.041.022-.089.1-.146.186-.114.234.046.068.225.019.413-.092a.21.21,0,0,0,.105.179.222.222,0,0,0,.25-.071c-.005.046-.007.089.016.1s.087-.012.149-.066c.046.1.112.178.2.178a.231.231,0,0,0,.187-.133c.04.039.078.085.129.085s.077-.044.115-.077h0a.225.225,0,0,0,.184.124c.055,0,.1-.047.14-.093h.006c-.02.106-.007.2.045.215s.136-.068.172-.192c0-.008,0-.014,0-.023a.152.152,0,0,0,.146.146.154.154,0,0,0,.154-.154c0-.011-.018-.009-.02-.02h.014c.036.031.068.074.112.074a.213.213,0,0,0,.147-.1h0c.087.092.186.15.272.114a.225.225,0,0,0,.115-.176l.031-.009c.059.123.145.218.259.218.146,0,.248-.147.293-.33a.211.211,0,0,0,.158.029.223.223,0,0,0,.12-.182c.019-.009.037-.021.056-.03.051.045.1.1.164.1.122,0,.207-.1.266-.24a.329.329,0,0,0,.169-.171.311.311,0,0,1,.036-.019c.03.13.073.23.132.23.082,0,.142-.175.155-.393a.214.214,0,0,0,.208.013.244.244,0,0,1,.257-.289.21.21,0,0,0,.013-.165c.023-.022.05-.037.072-.059s.02-.027.033-.039.031,0,.039-.013,0-.029,0-.041c.039-.041.069-.087.105-.129.042-.01.092-.006.117-.037s.008-.077.01-.117l.029-.036c.066.066.136.107.176.079s.024-.142-.042-.243c.008-.012.018-.022.027-.033.057.014.12.03.159-.018s.01-.11-.019-.163c.018-.027.028-.057.045-.085.016-.01.044,0,.056-.018s.005-.07.008-.1.026-.049.039-.074c.112-.018.2-.06.227-.143a.22.22,0,0,0-.058-.176c.005-.012.013-.023.018-.034.13.054.251.075.3.011.063-.079-.016-.232-.151-.374.014-.039.022-.08.036-.12a.2.2,0,0,0,.105-.354c0-.021.013-.041.018-.061.064-.013.135-.019.173-.069a.324.324,0,0,0-.022-.357.347.347,0,0,0-.047-.263c0-.041.009-.083.012-.125.028,0,.071.014.084,0,.031-.04,0-.118-.061-.206A.217.217,0,0,0,1010.453,4382.117Zm-.459-1.529,0-.012c.007,0,.009.01.016.009Z"/>
      <path id="Path_37" data-name="Path 37" class="cls-1" d="M1007.995,4390.378a.285.285,0,0,0-.33.041c.016-.056.027-.111,0-.133s-.113,0-.2.052c-.04-.138-.108-.247-.215-.263a.3.3,0,0,0-.262.133c-.042-.059-.082-.124-.145-.134s-.111.041-.165.077a.285.285,0,0,0-.209-.2.274.274,0,0,0-.2.095c.05-.132.051-.257-.013-.287s-.185.06-.255.209c-.005.011,0,.019-.007.029a.194.194,0,0,0-.156-.213c-.074-.012-.114.058-.156.114a.293.293,0,0,0-.259-.135c-.072.01-.121.077-.166.148-.09-.108-.194-.178-.3-.152a.28.28,0,0,0-.162.179.367.367,0,0,0-.255-.2c-.048-.008-.088.038-.135.053-.011-.01-.017-.035-.031-.036-.043-.007-.085.034-.121.1a.605.605,0,0,0-.11.171c-.04-.062-.084-.133-.162-.122-.035,0-.029.053-.055.072-.036-.008-.07-.045-.1-.037-.062.016-.1.085-.133.147-.007,0-.012-.011-.019-.01-.048.007-.074.064-.11.1-.057-.067-.11-.142-.192-.154-.153-.023-.283.092-.383.25a.405.405,0,0,0-.061.024.392.392,0,0,0-.349-.191c-.2.028-.314.259-.321.526-.055-.007-.115-.035-.16-.008a.293.293,0,0,0-.117.267c-.019.012-.035.028-.053.039a.357.357,0,0,0-.241-.1c-.154.022-.244.169-.295.35a.433.433,0,0,0-.187.273c-.011.01-.024.017-.033.025-.062-.17-.136-.3-.214-.29-.1.016-.149.248-.128.527a.269.269,0,0,0-.265.019.286.286,0,0,0-.06.328c-.049-.033-.1-.06-.127-.043s-.037.109-.009.208c-.144,0-.268.028-.316.127a.291.291,0,0,0,.048.288c-.068.024-.143.042-.171.1s.006.118.023.18h0a.292.292,0,0,0-.249.141.27.27,0,0,0,.029.216l0,0c-.111-.084-.227-.122-.274-.071s0,.195.122.306c.006.006.012.006.018.01l0,.01a.19.19,0,0,0-.238.081.2.2,0,0,0,.09.263c.007,0,.012-.009.021-.007l-.008.021c-.048.023-.112.032-.134.077a.272.272,0,0,0,.027.205l-.01.026c-.149.05-.266.129-.273.245a.279.279,0,0,0,.12.2c-.006.022-.007.045-.012.066a.4.4,0,0,0-.375.178c-.083.168.029.367.214.522-.059.05-.12.1-.124.166s.053.125.107.181c0,.053.006.109,0,.162-.062.033-.14.052-.17.114a.415.415,0,0,0,.124.439.4.4,0,0,0,.068.259c0,.026,0,.049,0,.075-.15-.032-.274-.033-.3.03-.046.1.121.264.364.4a.268.268,0,0,0-.133.231c.007.114.1.188.221.227a.271.271,0,0,0-.034.23c.02.046.084.054.129.079.021.067.025.136.047.2.045.133.118.246.17.373,0,.019-.017.043-.009.06s.038.016.05.03c.017.041.036.079.055.119-.085.038-.149.087-.141.139s.128.065.236.071c.023.044.04.094.064.139-.013.044-.066.077-.044.122s.077.024.118.043c.085.148.192.276.288.415a.291.291,0,0,0,.067.283c.038.033.1.018.155.021.021.028.039.059.062.086-.109.109-.177.221-.137.305.05.1.235.106.443.057.065.068.139.125.207.191.006.068,0,.142.048.183s.113.026.177.025c.054.047.1.1.158.146,0,.054-.036.111-.014.16.067.139.236.181.423.176a.4.4,0,0,0,.231.109c.07.044.137.088.208.129,0,.012-.021.029-.017.038.016.035.086.034.143.041.039.02.073.048.111.067a.269.269,0,0,0,.1.239.284.284,0,0,0,.33-.042c-.016.057-.027.111,0,.134s.114,0,.2-.054c.04.139.108.247.215.265a.285.285,0,0,0,.234-.109c.032.008.06.025.092.034s.046.069.082.075.052-.031.08-.038c.049.013.1.014.148.025.042.058.081.123.144.133s.114-.041.169-.079l.031.005c-.04.123-.041.237.019.265s.185-.06.255-.208l0-.009.023,0c.009.086.048.174.138.188.075.011.114-.058.156-.115a.292.292,0,0,0,.259.136c.071-.009.121-.078.166-.147.09.107.194.176.3.151a.282.282,0,0,0,.162-.18.371.371,0,0,0,.254.205c.049.008.089-.039.135-.052.012.01.018.033.032.036.043.006.085-.035.12-.1a.607.607,0,0,0,.111-.172c.04.063.083.134.162.122.035,0,.029-.052.055-.072.035.008.069.045.1.036.063-.015.1-.085.133-.146.006,0,.012.01.019.009.047-.006.073-.063.111-.1.056.067.109.142.191.155.153.023.283-.093.383-.252a.268.268,0,0,0,.061-.024.391.391,0,0,0,.349.191c.2-.027.314-.258.32-.524.056.007.116.033.161.007a.28.28,0,0,0,.108-.228c.033-.021.059-.046.091-.066.069.041.135.1.212.087.153-.022.245-.171.295-.351a.414.414,0,0,0,.181-.236c.015-.013.033-.022.048-.035.06.156.131.273.205.262.1-.014.148-.247.128-.526a.265.265,0,0,0,.265-.019.283.283,0,0,0,.059-.327c.05.032.1.059.128.041s.037-.107.009-.208c.144,0,.268-.028.316-.125a.3.3,0,0,0-.048-.29c.068-.023.142-.04.171-.1s-.007-.114-.023-.176l0,0a.289.289,0,0,0,.247-.14.276.276,0,0,0-.028-.215l0-.006c.11.083.226.121.272.07s0-.195-.123-.306c-.008-.008-.017-.008-.025-.015a.192.192,0,0,0,.16-.349c-.012-.006-.02.015-.033.011l.007-.017c.054-.024.123-.035.147-.085a.274.274,0,0,0-.03-.226l0,0c.154-.049.277-.13.284-.249a.291.291,0,0,0-.137-.232c0-.013,0-.027.007-.04a.4.4,0,0,0,.4-.174c.083-.167-.029-.367-.214-.523.058-.048.12-.1.124-.164a.29.29,0,0,0-.141-.242c0-.027,0-.054,0-.081.08-.033.166-.06.2-.134a6.5,6.5,0,0,0-.226-.731c0-.017,0-.035,0-.053.166.039.3.047.339-.021.046-.093-.122-.262-.364-.4a.27.27,0,0,0,.133-.232c-.008-.114-.1-.187-.221-.228a.275.275,0,0,0,.035-.23c-.03-.061-.107-.086-.182-.109-.013-.038-.014-.078-.027-.115-.007-.021-.02-.038-.027-.06s.015-.037.007-.053-.034-.013-.044-.027c-.025-.068-.061-.128-.089-.194.012-.054.045-.109.023-.154s-.083-.053-.128-.078c-.009-.018-.017-.036-.025-.055.113-.037.2-.1.19-.156s-.149-.109-.3-.09c-.009-.016-.015-.033-.023-.049.049-.057.1-.121.069-.193s-.12-.073-.2-.071c-.022-.035-.05-.064-.072-.1,0-.023.021-.052.011-.075-.019-.04-.077-.045-.116-.069-.02-.03-.042-.057-.063-.086.043-.139.046-.268-.036-.341a.282.282,0,0,0-.236-.033c-.01-.012-.018-.028-.028-.04.136-.119.229-.245.184-.339-.056-.117-.276-.114-.516-.038-.037-.039-.079-.071-.117-.109a.291.291,0,0,0-.065-.284.288.288,0,0,0-.282-.037c-.021-.018-.039-.038-.06-.056a.347.347,0,0,0,.02-.237.415.415,0,0,0-.422-.176.441.441,0,0,0-.329-.1c-.046-.029-.09-.058-.136-.085.013-.033.055-.073.043-.1-.029-.059-.136-.067-.271-.046A.279.279,0,0,0,1007.995,4390.378Zm-2.015-.339-.015,0c0-.008.017,0,.019-.013Z"/>
    </g>
  </g>
</svg>
