<svg xmlns="http://www.w3.org/2000/svg" viewBox="0 0 212.58 37.53"><defs><style>.cls-1{fill:#fff;}</style></defs><title>frame</title><g id="Layer_2" data-name="Layer 2"><g id="Hero_Shop_Button" data-name="Hero Shop Button"><path class="cls-1" d="M207.84,37.53H4.74a.34.34,0,0,1-.34-.34V34.46a1.34,1.34,0,0,0-1.33-1.33H.34A.34.34,0,0,1,0,32.79v-28A.34.34,0,0,1,.34,4.4H3.07A1.34,1.34,0,0,0,4.4,3.07V.34A.34.34,0,0,1,4.74,0h203.1a.34.34,0,0,1,.34.34V3.07A1.33,1.33,0,0,0,209.5,4.4h2.73a.35.35,0,0,1,.35.34V32.79a.35.35,0,0,1-.35.34H209.5a1.33,1.33,0,0,0-1.32,1.33v2.73A.34.34,0,0,1,207.84,37.53ZM5.08,36.85H207.5V34.46a2,2,0,0,1,2-2h2.39V5.08H209.5a2,2,0,0,1-2-2V.68H5.08V3.07a2,2,0,0,1-2,2H.68V32.45H3.07a2,2,0,0,1,2,2Z"/><path class="cls-1" d="M205.11,34.8H7.47a.34.34,0,0,1-.34-.34A4.06,4.06,0,0,0,3.07,30.4a.34.34,0,0,1-.34-.34V7.47a.34.34,0,0,1,.34-.34A4.06,4.06,0,0,0,7.13,3.07a.34.34,0,0,1,.34-.34H205.11a.34.34,0,0,1,.34.34,4.06,4.06,0,0,0,4.05,4.06.34.34,0,0,1,.34.34V30.06a.34.34,0,0,1-.34.34,4.06,4.06,0,0,0-4.05,4.06A.34.34,0,0,1,205.11,34.8ZM7.8,34.12h197a4.74,4.74,0,0,1,4.38-4.39V7.8a4.74,4.74,0,0,1-4.38-4.39H7.8A4.75,4.75,0,0,1,3.41,7.8V29.73A4.75,4.75,0,0,1,7.8,34.12Z"/></g></g></svg>