<svg xmlns="http://www.w3.org/2000/svg" xmlns:xlink="http://www.w3.org/1999/xlink" width="885.766" height="727.166" viewBox="0 0 885.766 727.166">
  <defs>
    <linearGradient id="linear-gradient" y1="0.5" x2="1" y2="0.5" gradientUnits="objectBoundingBox">
      <stop offset="0" stop-color="#887039"/>
      <stop offset="0.489" stop-color="#e6be76"/>
      <stop offset="0.824" stop-color="#a5884b"/>
      <stop offset="1" stop-color="#887039"/>
    </linearGradient>
  </defs>
  <path id="Path_467" data-name="Path 467" d="M6435.289,2238.425v-13.232h-13.031v5.94H5563.352v-5.94H5550.32v13.232h5.119v698.95a1.751,1.751,0,0,1-1.748,1.754h-2.42a1.751,1.751,0,0,0-1.748,1.754v9.722a1.751,1.751,0,0,0,1.748,1.754h9.535a1.752,1.752,0,0,0,1.748-1.754v-3.789a1.751,1.751,0,0,1,1.748-1.754h855.41a1.751,1.751,0,0,1,1.748,1.754v3.789a1.752,1.752,0,0,0,1.748,1.754h9.535a1.751,1.751,0,0,0,1.748-1.754v-9.722a1.751,1.751,0,0,0-1.748-1.754h-1.7a1.751,1.751,0,0,1-1.748-1.754v-698.95ZM5559.6,2951.146h-7.119a1.751,1.751,0,0,1-1.748-1.754v-7.3a1.752,1.752,0,0,1,1.748-1.754h1.212a1.752,1.752,0,0,1,1.748,1.754v1.213a1.751,1.751,0,0,0,1.748,1.754h2.411a1.751,1.751,0,0,1,1.748,1.754v2.576A1.751,1.751,0,0,1,5559.6,2951.146Zm0-7.3h-1.2a1.751,1.751,0,0,1-1.748-1.754h0a1.752,1.752,0,0,1,1.748-1.754h1.2a1.752,1.752,0,0,1,1.748,1.754h0A1.751,1.751,0,0,1,5559.6,2943.849Zm.618-4.72H5558.4a1.751,1.751,0,0,1-1.748-1.754v-698.95h5.317v698.95A1.751,1.751,0,0,1,5560.216,2939.129Zm1.927-702.024h-.179v.107h-5.317v-4.866h5.5Zm0-5.972h-6.7v6.079h-3.91v-10.806h10.614Zm857.569,712.716H5564.3a1.751,1.751,0,0,1-1.748-1.754v-.214a1.751,1.751,0,0,1,1.748-1.754h855.41a1.751,1.751,0,0,1,1.748,1.754v.214A1.751,1.751,0,0,1,6419.712,2943.849Zm.1-4.935H5564.921a1.752,1.752,0,0,1-1.749-1.754V2238.425h.18v-.108h858.205V2937.16A1.751,1.751,0,0,1,6419.809,2938.914Zm2.449-701.809H5563.352v-4.759h858.906Zm1.208-4.759h4.618v4.866h-4.618Zm-.7,6.079h5.318v698.95a1.751,1.751,0,0,1-1.748,1.754h-1.822a1.751,1.751,0,0,1-1.748-1.754Zm1.65,701.916h1.92a1.751,1.751,0,0,1,1.748,1.754h0a1.751,1.751,0,0,1-1.748,1.754h-1.92a1.751,1.751,0,0,1-1.748-1.754h0A1.752,1.752,0,0,1,6424.416,2940.341Zm8.867,1.754v7.3a1.751,1.751,0,0,1-1.748,1.754h-7.119a1.751,1.751,0,0,1-1.748-1.754v-2.576a1.751,1.751,0,0,1,1.748-1.754h3.128a1.751,1.751,0,0,0,1.749-1.754v-1.213a1.751,1.751,0,0,1,1.748-1.754h.494A1.752,1.752,0,0,1,6433.283,2942.095Zm-9.817-710.962v-4.727h10.615v10.806h-4.788v-6.079Z" transform="translate(-5549.523 -2225.193)" fill="url(#linear-gradient)"/>
</svg>
