<svg xmlns="http://www.w3.org/2000/svg" width="1280.232" height="194.724" viewBox="0 0 1280.232 194.724">
  <path id="Path_31" data-name="Path 31" d="M1280,1162.667v-123.46h0v-37.645H0v37.645H0v157.079H0v-4.382H0v4.382H1.5v-4.382H8.049v4.382h18.44v-4.382h6.554v4.382h18.44v-4.382h6.554v4.382h18.44v-4.382h6.554v4.382h18.44v-4.382h6.554v4.382h18.44v-4.382h6.554v4.382h18.44v-4.382h6.554v4.382h18.44v-4.382h6.554v4.382h18.44v-4.382H208v4.382h18.44v-4.382H233v4.382h18.44v-4.382h6.554v4.382h18.44v-4.382h6.554v4.382h18.44v-4.382h6.554v4.382h18.44v-4.382h6.554v4.382h18.44v-4.382h6.554v4.382h18.44v-4.382h6.554v4.382H401.4v-4.382h6.554v4.382H426.4v-4.382h6.554v4.382h18.44v-4.382h6.554v4.382h18.44v-4.382h6.554v4.382h18.44v-4.382h6.554v4.382h18.44v-4.382h6.554v4.382h18.44v-4.382h6.554v4.382h18.44v-4.382h6.554v4.382h18.44v-4.382h6.554v4.382h18.44v-4.382H632.9v4.382h18.44v-4.382H657.9v4.382h18.44v-4.382h6.554v4.382h18.44v-4.382h6.554v4.382h18.44v-4.382h6.554v4.382h18.44v-4.382h6.554v4.382h18.44v-4.382h6.554v4.382h18.44v-4.382h6.554v4.382H826.3v-4.382h6.554v4.382H851.3v-4.382h6.554v4.382h18.44v-4.382h6.554v4.382h18.44v-4.382h4.035v4.382h20.959v-4.382h4.035v4.382h20.959v-4.382h4.035v4.382h18.44v-4.382H980.3v4.382h18.44v-4.382h6.554v4.382h18.44v-4.382h6.554v4.382h18.44v-4.382h6.554v4.382h18.44v-4.382h6.554v4.382h18.44v-4.382h6.554v4.382h18.44v-4.382h6.554v4.382h18.44v-4.382h6.554v4.382h18.44v-4.382h6.554v4.382h18.44v-4.382h6.554v4.382h18.44v-4.382h6.554v4.382h18.44v-4.382h6.554v4.382h18.44v-4.382h6.554v4.382H1280v-4.382h0v4.382h0v-17.608h0v-16.012Z" transform="translate(0 -1001.563)" fill="#e2ede6"/>
</svg>
