<svg xmlns="http://www.w3.org/2000/svg" width="182.906" height="41.135" viewBox="0 0 182.906 41.135">
  <defs>
    <style>
      .cls-1, .cls-2 {
        fill: #42843e;
      }

      .cls-1 {
        font-size: 11.271px;
        font-family: WorkSans-Bold, Work Sans;
        font-weight: 700;
        letter-spacing: 0.2em;
      }
    </style>
  </defs>
  <g id="Newsletter_Submit_Button" data-name="Newsletter Submit Button" transform="translate(-882.975 -3320.536)">
    <g id="Group_50" data-name="Group 50">
      <path id="Path_81" data-name="Path 81" class="cls-2" d="M1060.687,3361.671H888.169a.375.375,0,0,1-.374-.374V3358.3a1.452,1.452,0,0,0-1.452-1.451h-2.994a.375.375,0,0,1-.374-.375v-30.746a.375.375,0,0,1,.374-.374h2.994a1.454,1.454,0,0,0,1.452-1.453v-2.994a.375.375,0,0,1,.374-.374h172.518a.375.375,0,0,1,.374.374v2.994a1.454,1.454,0,0,0,1.452,1.453h2.994a.375.375,0,0,1,.374.374v30.746a.375.375,0,0,1-.374.375h-2.994a1.452,1.452,0,0,0-1.452,1.451v2.994A.375.375,0,0,1,1060.687,3361.671Zm-172.144-.748h171.77v-2.62a2.2,2.2,0,0,1,2.2-2.2h2.619v-30h-2.619a2.2,2.2,0,0,1-2.2-2.2v-2.62H888.543v2.62a2.2,2.2,0,0,1-2.2,2.2h-2.619v30h2.619a2.2,2.2,0,0,1,2.2,2.2Z"/>
      <path id="Path_82" data-name="Path 82" class="cls-2" d="M1057.694,3358.677H891.163a.375.375,0,0,1-.374-.374,4.451,4.451,0,0,0-4.447-4.445.375.375,0,0,1-.374-.374v-24.759a.375.375,0,0,1,.374-.374,4.453,4.453,0,0,0,4.447-4.447.375.375,0,0,1,.374-.374h166.531a.376.376,0,0,1,.375.374,4.451,4.451,0,0,0,4.445,4.447.375.375,0,0,1,.374.374v24.759a.375.375,0,0,1-.374.374,4.45,4.45,0,0,0-4.445,4.445A.376.376,0,0,1,1057.694,3358.677Zm-166.17-.748h165.809a5.2,5.2,0,0,1,4.806-4.806v-24.037a5.2,5.2,0,0,1-4.806-4.808H891.524a5.2,5.2,0,0,1-4.807,4.808v24.037A5.2,5.2,0,0,1,891.524,3357.929Z"/>
    </g>
  </g>
</svg>
